<?xml version="1.0" encoding="UTF-8"?>
<svg width="180px" height="180px" viewBox="0 0 180 180" version="1.1" xmlns="http://www.w3.org/2000/svg" xmlns:xlink="http://www.w3.org/1999/xlink">
    <!-- Generator: Sketch 41.1 (35376) - http://www.bohemiancoding.com/sketch -->
    <title>iPhone 7</title>
    <desc>Created with Sketch.</desc>
    <defs></defs>
    <g id="Page-1" stroke="none" stroke-width="1" fill="none" fill-rule="evenodd">
        <g id="iPhone-7">
            <g id="Group-2" transform="translate(25.000000, 63.000000)">
                <g id="Group" fill="#000000">
                    <g id="a" transform="translate(100.158537, 22.000000)">
                        <path d="M0.0314634146,17.8304762 C0.0314634146,15.5641157 0.82940259,13.0481091 2.42530488,10.282381 C4.02120717,7.51665284 6.08815804,5.13508935 8.62621951,3.13761905 C11.164281,1.14014874 13.6253946,0.141428571 16.0096341,0.141428571 C17.5093977,0.141428571 18.759182,0.544757871 19.7590244,1.35142857 C20.7588668,2.15809927 21.2587805,3.19523176 21.2587805,4.46285714 C21.2587805,6.11461143 20.3166354,6.94047619 18.4323171,6.94047619 C18.6245945,6.24904416 18.7207317,5.57682866 18.7207317,4.92380952 C18.7207317,2.77268766 17.7785867,1.69714286 15.8942683,1.69714286 C14.2022273,1.69714286 12.4044607,2.66705379 10.5009146,4.60690476 C8.59736853,6.54675573 7.03994508,8.79387612 5.82859756,11.3483333 C4.61725004,13.9027905 4.01158537,16.1211017 4.01158537,18.0033333 C4.01158537,19.5014361 4.53072652,20.2504762 5.56902439,20.2504762 C6.26122297,20.2504762 7.06877587,19.9239715 7.99170732,19.2709524 C8.91463876,18.6179332 9.76064656,17.8880993 10.5297561,17.0814286 C11.2988656,16.2747579 12.2121695,15.18961 13.2696951,13.8259524 C14.3272207,12.4622948 15.1059325,11.4155592 15.6058537,10.6857143 L17.682439,7.68952381 C19.2206581,7.95841404 19.9897561,8.43856797 19.9897561,9.13 C19.9897561,9.43730312 19.43216,10.5896726 18.3169512,12.5871429 C17.2017424,14.5846132 16.6441463,16.1018996 16.6441463,17.1390476 C16.6441463,17.7920668 16.8075797,18.3778546 17.1344512,18.8964286 C17.4613228,19.4150026 17.9516227,19.6742857 18.6053659,19.6742857 C19.7205747,19.6742857 21.1241785,18.8772302 22.8162195,17.2830952 C24.5082605,15.6889603 26.1810486,13.451443 27.8346341,10.5704762 L28.4114634,11.1466667 C27.2193436,14.2196979 25.5369418,16.7357045 23.3642073,18.6947619 C21.1914729,20.6538193 19.0668397,21.6333333 16.9902439,21.6333333 C15.6443022,21.6333333 14.6156336,21.2396071 13.9042073,20.4521429 C13.192781,19.6646786 12.8370732,18.7139738 12.8370732,17.6 C12.8370732,17.1390453 12.8947555,16.5820668 13.010122,15.9290476 C11.2796255,18.233821 9.73181577,19.9239629 8.36664634,20.9995238 C7.00147691,22.0750847 5.64594169,22.6128571 4.3,22.6128571 C3.03096926,22.6128571 2.00230069,22.1999248 1.21396341,21.3740476 C0.42562614,20.5481705 0.0314634146,19.3669918 0.0314634146,17.8304762 L0.0314634146,17.8304762 Z" id="Lolita"></path>
                    </g>
                    <g id="t" transform="translate(84.951220, 7.333333)">
                        <path d="M0.0681707317,31.517619 C0.0681707317,28.2141105 1.18336283,23.5854266 3.41378049,17.6314286 C2.49084904,17.477777 1.79866084,17.3241278 1.33719512,17.1704762 L1.33719512,16.1333333 C2.72159229,16.2869849 3.56760009,16.3638095 3.8752439,16.3638095 C5.56728488,11.98474 7.38427891,8.19152397 9.32628049,4.98404762 C11.2682821,1.77657126 12.7968643,0.172857143 13.9120732,0.172857143 C14.219717,0.172857143 14.498515,0.288094086 14.7484756,0.518571429 C14.9984362,0.749048771 15.1234146,1.05634729 15.1234146,1.44047619 C15.1234146,2.01666955 14.7484794,3.01538972 13.9985976,4.43666667 C13.2487158,5.85794361 12.191206,7.75935317 10.8260366,10.1409524 C9.46086716,12.5225516 8.33606133,14.654435 7.45158537,16.5366667 L9.58585366,16.5366667 C12.7776582,16.5366667 15.5271836,16.4214297 17.8345122,16.1909524 L17.8345122,17.2280952 C13.7582317,17.6890499 10.4703377,17.9195238 7.97073171,17.9195238 C7.85536528,17.9195238 7.75922803,17.9195238 7.68231707,17.9195238 L6.81707317,17.9195238 C4.70202195,22.7211351 3.6445122,26.8888712 3.6445122,30.4228571 C3.6445122,32.1514372 3.89446905,33.3614251 4.39439024,34.0528571 C4.89431144,34.7442892 5.72109179,35.09 6.8747561,35.09 C8.83598542,35.09 10.7779579,34.2161199 12.7007317,32.4683333 C14.6235055,30.7205468 16.3347486,28.3101741 17.8345122,25.2371429 L18.5843902,25.8133333 C17.1615376,29.1552548 15.2387926,31.8921322 12.8160976,34.0240476 C10.3934025,36.155963 7.85537912,37.2219048 5.20195122,37.2219048 C1.77941378,37.2219048 0.0681707317,35.3204952 0.0681707317,31.517619 L0.0681707317,31.517619 Z" id="Path"></path>
                    </g>
                    <g id="i" transform="translate(70.792683, 12.047619)">
                        <path d="M9.26597561,3.06428571 C9.26597561,2.2960279 9.72743441,1.60460625 10.6503659,0.99 C11.5732973,0.375393752 12.5154423,0.0680952381 13.4768293,0.0680952381 C14.74586,0.0680952381 15.3803659,0.644279952 15.3803659,1.79666667 C15.3803659,2.56492448 14.9862031,3.28515537 14.1978659,3.95738095 C13.4095286,4.62960654 12.5539071,4.96571429 11.6309756,4.96571429 C10.0543011,4.96571429 9.26597561,4.3319111 9.26597561,3.06428571 L9.26597561,3.06428571 Z" id="Path"></path>
                        <path d="M0.267439024,26.5152381 C0.267439024,25.0171354 0.671215474,23.0004889 1.47878049,20.4652381 C2.2863455,17.9299873 3.3630827,15.6060423 4.70902439,13.4933333 C6.05496608,11.3806244 7.34320523,10.3242857 8.57378049,10.3242857 C9.41980098,10.3242857 9.84280488,10.7468212 9.84280488,11.5919048 C9.84280488,12.0528594 9.34289118,13.1091981 8.34304878,14.7609524 C7.34320638,16.4127067 6.34337898,18.285307 5.34353659,20.3788095 C4.34369419,22.4723121 3.84378049,24.3065001 3.84378049,25.8814286 C3.84378049,27.2258797 4.06489616,28.1381722 4.50713415,28.6183333 C4.94937213,29.0984945 5.6704015,29.3385714 6.6702439,29.3385714 C9.6697711,29.3385714 12.6307984,26.4000294 15.5534146,20.5228571 L16.072561,21.0990476 C14.9958076,24.3257304 13.409543,26.841737 11.3137195,28.6471429 C9.21789603,30.4525487 7.016353,31.3552381 4.70902439,31.3552381 C3.28617175,31.3552381 2.1902071,30.9038934 1.42109756,30.0011905 C0.651988024,29.0984876 0.267439024,27.936515 0.267439024,26.5152381 L0.267439024,26.5152381 Z" id="Path"></path>
                    </g>
                    <g id="l" transform="translate(57.682927, 0.000000)">
                        <path d="M0.225487805,37.6985714 C0.225487805,35.0864949 0.975358355,31.6005774 2.47512195,27.2407143 C3.97488555,22.8808512 5.71496977,18.7515274 7.69542683,14.852619 C9.67588389,10.9537107 11.6755387,7.57342701 13.6944512,4.71166667 C15.7133638,1.84990633 17.2034911,0.419047619 18.164878,0.419047619 C18.7032547,0.419047619 19.1550998,0.899201548 19.5204268,1.85952381 C19.8857539,2.81984607 20.0684146,3.76094777 20.0684146,4.68285714 C20.0684146,7.56382393 18.4917637,11.9524308 15.3384146,17.8488095 C12.1850655,23.7451882 8.64721473,28.3066505 4.7247561,31.5333333 C4.2248349,33.761281 3.97487805,35.7011029 3.97487805,37.3528571 C3.97487805,40.3106497 4.82088585,41.7895238 6.51292683,41.7895238 C7.93577947,41.7895238 9.38745195,40.8868344 10.8679878,39.0814286 C12.3485237,37.2760227 13.665604,35.105727 14.8192683,32.5704762 L15.6845122,33.0314286 C12.3773412,40.0994004 8.78180804,43.6333333 4.89780488,43.6333333 L4.84012195,43.6333333 C1.7636838,43.6333333 0.225487805,41.6550991 0.225487805,37.6985714 Z M5.24390244,29.5742857 C8.39725154,26.3860158 11.3582788,22.1894705 14.1270732,16.9845238 C16.8958675,11.7795772 18.2802439,8.12080421 18.2802439,6.00809524 C18.2802439,5.39348899 18.1456518,5.08619048 17.8764634,5.08619048 C17.3380867,5.08619048 16.2709633,6.32498761 14.675061,8.80261905 C13.0791587,11.2802505 11.3583019,14.4972818 9.51243902,18.4538095 C7.66657614,22.4103372 6.24374484,26.1171256 5.24390244,29.5742857 Z" id="Combined-Shape"></path>
                    </g>
                    <g id="o" transform="translate(35.658537, 21.476190)">
                        <path d="M2.55115854,9.68261905 C3.95478344,7.2434005 5.46413827,6.02380952 7.07926829,6.02380952 C7.42536758,6.02380952 7.82914403,6.11984031 8.29060976,6.31190476 C7.5599557,6.92651101 6.69472045,8.4534005 5.69487805,10.892619 C4.69503565,13.3318376 4.19512195,15.2428502 4.19512195,16.6257143 C4.19512195,18.815249 4.88731015,19.91 6.27170732,19.91 C7.9637483,19.91 10.0210854,18.3735074 12.4437805,15.3004762 C11.3670271,14.4169797 10.5306331,13.2646103 9.93457317,11.8433333 C9.33851328,10.4220564 9.0404878,8.94318229 9.0404878,7.40666667 C9.0404878,5.40919636 9.55001523,3.69984838 10.5690854,2.27857143 C11.5881555,0.857294481 12.9629182,0.146666667 14.6934146,0.146666667 C17.3468425,0.146666667 18.6735366,1.62554077 18.6735366,4.58333333 C18.6735366,7.57953879 17.3852974,10.9982348 14.8087805,14.8395238 C15.5009791,15.2236527 16.2316222,15.4157143 17.0007317,15.4157143 C18.1159405,15.4157143 19.2695875,15.0796065 20.4617073,14.407381 C21.6538271,13.7351554 22.5575172,12.6884198 23.1728049,11.2671429 L23.865,11.8433333 C23.1343459,13.5335005 22.0960636,14.7819007 20.750122,15.5885714 C19.4041803,16.3952421 18.0198039,16.7985714 16.5969512,16.7985714 C15.5586533,16.7985714 14.6357357,16.6065099 13.8281707,16.222381 C10.7517326,20.2557345 7.80993274,22.272381 5.00268293,22.272381 C3.42600838,22.272381 2.27236138,21.792227 1.54170732,20.8319048 C0.811053257,19.8715825 0.445731707,18.6039761 0.445731707,17.0290476 C0.445731707,14.5706226 1.14753363,12.1218376 2.55115854,9.68261905 Z M11.5208537,7.57952381 C11.5208537,10.1916004 12.174587,12.2658653 13.4820732,13.802381 C15.7124908,10.4988724 16.8276829,7.54112417 16.8276829,4.92904762 C16.8276829,2.77792575 16.2508594,1.70238095 15.0971951,1.70238095 C14.2511746,1.70238095 13.4436217,2.28816875 12.6745122,3.4597619 C11.9054027,4.63135506 11.5208537,6.0045953 11.5208537,7.57952381 Z" id="Combined-Shape"></path>
                    </g>
                    <g id="L">
                        <path d="M0.513902439,39.9457143 C0.513902439,38.2555471 1.91750629,37.4104762 4.7247561,37.4104762 C6.41679708,37.4104762 8.78177343,37.8138055 11.8197561,38.6204762 C12.4734992,37.5065024 13.14646,36.0660406 13.8386585,34.2990476 C14.5308571,32.5320547 15.0788394,31.0627836 15.482622,29.8911905 C15.8864045,28.7195973 16.5112966,26.7893785 17.3573171,24.1004762 L19.030122,18.8571429 C17.26117,18.2809495 15.8671799,17.4358786 14.8481098,16.3219048 C13.8290396,15.2079309 13.3195122,13.997943 13.3195122,12.6919048 C13.3195122,11.5779309 13.6559926,10.5407985 14.3289634,9.58047619 C15.0019343,8.62015393 15.8575558,8.14 16.8958537,8.14 C16.3959325,8.83143203 16.1459756,10.0222138 16.1459756,11.712381 C16.1459756,14.4781091 17.2419403,16.4563433 19.4339024,17.6471429 C20.2799229,15.0734792 21.0874758,12.8647711 21.8565854,11.0209524 C22.6256949,9.17713364 23.5197713,7.39096102 24.5388415,5.66238095 C25.5579116,3.93380088 26.6827174,2.6277822 27.9132927,1.74428571 C29.1438679,0.860789233 30.4513345,0.419047619 31.8357317,0.419047619 C33.2585843,0.419047619 34.5468235,0.87999539 35.7004878,1.80190476 C36.8541521,2.72381413 37.4309756,4.22189439 37.4309756,6.29619048 C37.4309756,7.67905453 37.1425639,9.11951632 36.5657317,10.617619 C35.9888996,12.1157218 35.1621192,13.5465805 34.0853659,14.9102381 C33.0086125,16.2738957 31.55694,17.3878528 29.7303049,18.2521429 C27.9036697,19.1164329 25.8559463,19.5485714 23.5870732,19.5485714 L22.6641463,19.5485714 C19.3954308,29.3822714 16.626678,35.9891894 14.3578049,39.3695238 C14.7039042,39.4847625 15.5691394,39.7536487 16.9535366,40.1761905 L19.78,41.0404762 C20.2414657,41.1941278 21.0682461,41.4246016 22.2603659,41.7319048 C23.4524856,42.0392079 24.3754032,42.2600787 25.0291463,42.3945238 C25.6828894,42.5289689 26.4423737,42.6538089 27.307622,42.7690476 C28.1728702,42.8842863 28.9515819,42.9419048 29.6437805,42.9419048 C31.1819996,42.9419048 32.5471485,42.6346062 33.7392683,42.02 C32.585604,45.2850957 30.5667217,46.917619 27.682561,46.917619 C26.6827186,46.917619 25.481003,46.7159544 24.077378,46.312619 C22.6737531,45.9092837 21.558561,45.5347636 20.7317683,45.1890476 C19.9049755,44.8433316 18.4725305,44.1999253 16.4343902,43.2588095 C14.39625,42.3176937 13.1464657,41.7511121 12.685,41.5590476 C10.6468597,43.8254082 8.51261278,44.9585714 6.28219512,44.9585714 C4.55169866,44.9585714 3.15770854,44.4015929 2.10018293,43.287619 C1.04265731,42.1736452 0.513902439,41.0596881 0.513902439,39.9457143 Z M23.0102439,18.4538095 C26.163593,18.4153966 28.8362086,16.8020794 31.0281707,13.6138095 C33.2201329,10.4255396 34.3160976,7.46779141 34.3160976,4.74047619 C34.3160976,2.81983167 33.6239094,1.85952381 32.2395122,1.85952381 C31.3934917,1.85952381 30.5667114,2.26285311 29.7591463,3.06952381 C28.9515813,3.87619451 28.1440284,5.17261012 27.3364634,6.95880952 C26.5288984,8.74500893 25.8367102,10.4255477 25.259878,12.0004762 C24.6830459,13.5754047 23.9331753,15.7264943 23.0102439,18.4538095 Z M3.225,42.1928571 C4.03256501,42.9227021 4.97471006,43.287619 6.05146341,43.287619 C7.66659344,43.287619 9.14710709,42.4041358 10.4930488,40.6371429 C7.6473435,39.4847561 5.4554142,38.9085714 3.91719512,38.9085714 C2.64816439,38.9085714 2.01365854,39.2734884 2.01365854,40.0033333 C2.01365854,40.7331783 2.41743499,41.4630122 3.225,42.1928571 Z" id="Combined-Shape"></path>
                    </g>
                </g>
                <path d="M34.301472,54.6460193 C34.0095736,54.6460193 33.7729859,54.6076548 33.5917016,54.5309245 L33.5917016,53.9094122 C33.803712,53.9707964 34.0126466,54.0014881 34.2185118,54.0014881 C34.4581757,54.0014881 34.6340803,53.9362683 34.7462307,53.8058268 C34.8583811,53.6753853 34.9144555,53.4766568 34.9144555,53.2096354 L34.9144555,47.3351935 L35.6795327,47.3351935 L35.6795327,53.1543899 C35.6795327,54.1488145 35.2201837,54.6460193 34.301472,54.6460193 Z M34.8499309,45.9678664 C34.8499309,45.7929214 34.8929469,45.6647837 34.9789801,45.5834496 C35.0650133,45.5021155 35.1725532,45.461449 35.301603,45.461449 C35.4245076,45.461449 35.5305112,45.5028828 35.619617,45.5857515 C35.7087228,45.6686202 35.7532751,45.7959906 35.7532751,45.9678664 C35.7532751,46.1397423 35.7087228,46.26788 35.619617,46.3522833 C35.5305112,46.4366866 35.4245076,46.4788876 35.301603,46.4788876 C35.1725532,46.4788876 35.0650133,46.4366866 34.9789801,46.3522833 C34.8929469,46.26788 34.8499309,46.1397423 34.8499309,45.9678664 Z M38.0208532,47.3351935 L38.0208532,50.6084914 C38.0208532,51.0197658 38.1145665,51.3266824 38.301996,51.5292504 C38.4894255,51.7318183 38.7828558,51.8331008 39.1822956,51.8331008 C39.7107853,51.8331008 40.0971608,51.68885 40.3414336,51.4003441 C40.5857065,51.1118382 40.7078411,50.6407213 40.7078411,49.9869792 L40.7078411,47.3351935 L41.4729183,47.3351935 L41.4729183,52.3809524 L40.8414991,52.3809524 L40.7308856,51.7041946 L40.6894055,51.7041946 C40.5327022,51.9528007 40.3153179,52.143089 40.0372463,52.2750651 C39.7591747,52.4070412 39.441932,52.4730283 39.0855088,52.4730283 C38.4709859,52.4730283 38.0108688,52.3272429 37.7051436,52.0356678 C37.3994185,51.7440927 37.2465582,51.2775795 37.2465582,50.6361142 L37.2465582,47.3351935 L38.0208532,47.3351935 Z M46.3537419,51.0044178 C46.3537419,51.4740072 46.1786055,51.8361687 45.8283275,52.0909133 C45.4780494,52.3456579 44.9864385,52.4730283 44.3534799,52.4730283 C43.6836499,52.4730283 43.1613133,52.3671421 42.7864544,52.1553664 L42.7864544,51.4463821 C43.0291909,51.5691505 43.2895911,51.6658293 43.5676627,51.7364211 C43.8457343,51.807013 44.1138159,51.8423084 44.3719155,51.8423084 C44.7713554,51.8423084 45.0786122,51.7786232 45.2936952,51.6512509 C45.5087782,51.5238786 45.6163181,51.3297539 45.6163181,51.0688709 C45.6163181,50.8724414 45.5310543,50.7044045 45.3605242,50.5647554 C45.1899941,50.4251063 44.8573886,50.2601386 44.3626977,50.0698475 C43.8925877,49.8949024 43.5584459,49.7422114 43.3602622,49.6117699 C43.1620786,49.4813284 43.0145953,49.3332412 42.917808,49.1675037 C42.8210206,49.0017663 42.7726277,48.8038051 42.7726277,48.5736142 C42.7726277,48.1623398 42.9400826,47.8377756 43.2749976,47.5999116 C43.6099126,47.3620477 44.0692616,47.2431176 44.6530583,47.2431176 C45.1969111,47.2431176 45.7284654,47.3536075 46.2477372,47.5745908 L45.9758122,48.1961031 C45.4688308,47.9873966 45.0094819,47.883045 44.5977515,47.883045 C44.235183,47.883045 43.9617244,47.9398246 43.7773676,48.0533854 C43.5930107,48.1669463 43.5008337,48.3234737 43.5008337,48.5229725 C43.5008337,48.6580178 43.5354,48.7731115 43.6045339,48.8682571 C43.6736677,48.9634026 43.7850483,49.053943 43.938679,49.139881 C44.0923097,49.2258189 44.3872763,49.3501201 44.8235876,49.5127883 C45.4227474,49.7307024 45.8275583,49.9501477 46.0380323,50.171131 C46.2485064,50.3921142 46.3537419,50.6698737 46.3537419,51.0044178 Z M49.2296946,51.8423084 C49.3648897,51.8423084 49.4954738,51.8323336 49.621451,51.8123837 C49.7474282,51.7924339 49.8472867,51.771717 49.9210294,51.7502325 L49.9210294,52.3349144 C49.8380688,52.3748142 49.7159343,52.4078077 49.554622,52.433896 C49.3933097,52.4599843 49.2481309,52.4730283 49.1190811,52.4730283 C48.1419897,52.4730283 47.6534513,51.958943 47.6534513,50.9307571 L47.6534513,47.929083 L46.9298542,47.929083 L46.9298542,47.5607794 L47.6534513,47.2431176 L47.9760742,46.1658296 L48.4185285,46.1658296 L48.4185285,47.3351935 L49.8841583,47.3351935 L49.8841583,47.929083 L48.4185285,47.929083 L48.4185285,50.8985305 C48.4185285,51.2023825 48.4907338,51.4356391 48.6351467,51.5983073 C48.7795596,51.7609755 48.9777403,51.8423084 49.2296946,51.8423084 Z M55.6591082,47.929083 L54.3732255,47.929083 L54.3732255,52.3809524 L53.6081483,52.3809524 L53.6081483,47.929083 L52.7048042,47.929083 L52.7048042,47.5837984 L53.6081483,47.3075707 L53.6081483,47.0267392 C53.6081483,45.7867777 54.1504567,45.1668062 55.2350896,45.1668062 C55.502407,45.1668062 55.815809,45.2205166 56.1753049,45.327939 L55.9771222,45.9402437 C55.6821513,45.8450981 55.4302006,45.797526 55.2212629,45.797526 C54.9324371,45.797526 54.7188936,45.8934375 54.580626,46.0852632 C54.4423583,46.2770889 54.3732255,46.5847728 54.3732255,47.008324 L54.3732255,47.3351935 L55.6591082,47.3351935 L55.6591082,47.929083 Z M57.2998761,47.3351935 L57.2998761,50.6084914 C57.2998761,51.0197658 57.3935895,51.3266824 57.581019,51.5292504 C57.7684484,51.7318183 58.0618787,51.8331008 58.4613186,51.8331008 C58.9898083,51.8331008 59.3761838,51.68885 59.6204566,51.4003441 C59.8647295,51.1118382 59.986864,50.6407213 59.986864,49.9869792 L59.986864,47.3351935 L60.7519412,47.3351935 L60.7519412,52.3809524 L60.1205221,52.3809524 L60.0099085,51.7041946 L59.9684284,51.7041946 C59.8117251,51.9528007 59.5943409,52.143089 59.3162693,52.2750651 C59.0381977,52.4070412 58.720955,52.4730283 58.3645317,52.4730283 C57.7500088,52.4730283 57.2898917,52.3272429 56.9841666,52.0356678 C56.6784414,51.7440927 56.5255812,51.2775795 56.5255812,50.6361142 L56.5255812,47.3351935 L57.2998761,47.3351935 Z M64.3929711,52.4730283 C63.6616889,52.4730283 63.0955682,52.2482119 62.694592,51.7985724 C62.2936158,51.3489328 62.0931307,50.7128482 62.0931307,49.8902995 C62.0931307,49.0462662 62.2966884,48.3940685 62.7038098,47.9336868 C63.1109312,47.473305 63.6908785,47.2431176 64.443669,47.2431176 C64.6864056,47.2431176 64.9291385,47.2692055 65.171875,47.3213821 C65.4146115,47.3735587 65.6051108,47.434942 65.7433784,47.5055339 L65.5083246,48.1546689 C65.3393308,48.0871462 65.1549767,48.031134 64.9552568,47.9866304 C64.7555368,47.9421268 64.5788641,47.9198754 64.4252334,47.9198754 C63.3989802,47.9198754 62.8858613,48.5736077 62.8858613,49.8810919 C62.8858613,50.5010727 63.0110684,50.9767934 63.2614865,51.3082682 C63.5119046,51.6397431 63.8829172,51.8054781 64.3745355,51.8054781 C64.7954837,51.8054781 65.2271796,51.7149377 65.6696361,51.5338542 L65.6696361,52.210612 C65.3316485,52.3855571 64.9060977,52.4730283 64.3929711,52.4730283 Z M67.6238091,49.7982236 C67.7559315,49.6110017 67.9571847,49.3654684 68.2275748,49.0616164 L69.8591249,47.3351935 L70.7670779,47.3351935 L68.7207269,49.4851656 L70.9099538,52.3809524 L69.9835652,52.3809524 L68.1999214,49.9961868 L67.6238091,50.4933966 L67.6238091,52.3809524 L66.8679497,52.3809524 L66.8679497,45.2174479 L67.6238091,45.2174479 L67.6238091,49.0155785 C67.6238091,49.1843851 67.6115188,49.4452642 67.5869379,49.7982236 L67.6238091,49.7982236 Z M72.5875929,52.3809524 L71.8225157,52.3809524 L71.8225157,47.3351935 L72.5875929,47.3351935 L72.5875929,52.3809524 Z M71.7579911,45.9678664 C71.7579911,45.7929214 71.8010071,45.6647837 71.8870403,45.5834496 C71.9730735,45.5021155 72.0806134,45.461449 72.2096632,45.461449 C72.3325678,45.461449 72.4385714,45.5028828 72.5276772,45.5857515 C72.616783,45.6686202 72.6613353,45.7959906 72.6613353,45.9678664 C72.6613353,46.1397423 72.616783,46.26788 72.5276772,46.3522833 C72.4385714,46.4366866 72.3325678,46.4788876 72.2096632,46.4788876 C72.0806134,46.4788876 71.9730735,46.4366866 71.8870403,46.3522833 C71.8010071,46.26788 71.7579911,46.1397423 71.7579911,45.9678664 Z M77.6665992,52.3809524 L77.6665992,49.116862 C77.6665992,48.7055876 77.5728858,48.398671 77.3854564,48.1961031 C77.1980269,47.9935351 76.9045966,47.8922526 76.5051567,47.8922526 C75.976667,47.8922526 75.5895234,48.0349688 75.3437143,48.3204055 C75.0979051,48.6058422 74.9750024,49.0769591 74.9750024,49.7337705 L74.9750024,52.3809524 L74.2099252,52.3809524 L74.2099252,47.3351935 L74.8321265,47.3351935 L74.9565668,48.0257626 L74.993438,48.0257626 C75.1501413,47.7771565 75.36983,47.5845663 75.6525105,47.4479864 C75.935191,47.3114065 76.2501293,47.2431176 76.5973347,47.2431176 C77.2057124,47.2431176 77.663525,47.3896702 77.9707865,47.6827799 C78.2780479,47.9758897 78.4316764,48.4447047 78.4316764,49.0892392 L78.4316764,52.3809524 L77.6665992,52.3809524 Z M84.1374929,47.3351935 L84.1374929,47.8185919 L83.2018864,47.929083 C83.2879196,48.0365054 83.3647338,48.1769197 83.4323314,48.3503302 C83.4999289,48.5237406 83.5337271,48.7194 83.5337271,48.937314 C83.5337271,49.4314571 83.3647359,49.8258449 83.0267483,50.1204892 C82.6887607,50.4151335 82.2248029,50.5624535 81.6348609,50.5624535 C81.4843028,50.5624535 81.3429646,50.5501768 81.2108422,50.5256231 C80.8851451,50.697499 80.722299,50.9138752 80.722299,51.1747582 C80.722299,51.3128727 80.7791415,51.4149225 80.8928282,51.4809105 C81.006515,51.5468986 81.201623,51.5798921 81.4781583,51.5798921 L82.3722847,51.5798921 C82.9192101,51.5798921 83.3393838,51.6949858 83.6328185,51.9251767 C83.9262531,52.1553676 84.0729683,52.4899067 84.0729683,52.9288039 C84.0729683,53.4874005 83.8486708,53.9132472 83.4000691,54.206357 C82.9514674,54.4994667 82.2970103,54.6460193 81.4366783,54.6460193 C80.7760662,54.6460193 80.2667879,54.5232527 79.9088284,54.2777158 C79.5508688,54.0321788 79.3718917,53.6853631 79.3718917,53.2372582 C79.3718917,52.930337 79.4702139,52.6648542 79.6668612,52.4408017 C79.8635085,52.2167493 80.1400397,52.0648255 80.4964629,51.985026 C80.3674131,51.926711 80.2591051,51.8361706 80.1715356,51.7134022 C80.0839661,51.5906337 80.040182,51.4479175 80.040182,51.2852493 C80.040182,51.1010965 80.0893431,50.9399653 80.1876667,50.8018508 C80.2859904,50.6637363 80.4411551,50.5302276 80.6531655,50.4013207 C80.3919933,50.2938983 80.1792179,50.1112829 80.014833,49.8534691 C79.8504482,49.5956553 79.768257,49.3010154 79.768257,48.9695406 C79.768257,48.4170824 79.9341756,47.9912357 80.266018,47.6919875 C80.5978604,47.3927394 81.0679633,47.2431176 81.676341,47.2431176 C81.9405858,47.2431176 82.1787099,47.2738092 82.3907203,47.3351935 L84.1374929,47.3351935 Z M80.1093155,53.2280506 C80.1093155,53.5012104 80.2245368,53.7083791 80.4549829,53.8495629 C80.6854289,53.9907466 81.01573,54.0613374 81.4458961,54.0613374 C82.0880725,54.0613374 82.5635524,53.965426 82.8723502,53.7736003 C83.1811479,53.5817745 83.3355445,53.3216627 83.3355445,52.9932571 C83.3355445,52.7200972 83.2510489,52.5305762 83.0820551,52.4246884 C82.9130613,52.3188006 82.5950504,52.2658575 82.1280131,52.2658575 L81.2108422,52.2658575 C80.8636368,52.2658575 80.5932508,52.348725 80.3996761,52.5144624 C80.2061014,52.6801999 80.1093155,52.9180602 80.1093155,53.2280506 Z M80.5241163,48.9511254 C80.5241163,49.3040847 80.6239748,49.5711021 80.8236947,49.7521856 C81.0234147,49.9332691 81.3014821,50.0238095 81.6579054,50.0238095 C82.4045507,50.0238095 82.7778678,49.661648 82.7778678,48.937314 C82.7778678,48.1792187 82.3999419,47.8001767 81.6440787,47.8001767 C81.2845828,47.8001767 81.0080517,47.8968554 80.8144769,48.0902158 C80.6209022,48.2835761 80.5241163,48.5705431 80.5241163,48.9511254 Z M90.7328268,52.3809524 L90.5807331,51.6627604 L90.5438619,51.6627604 C90.2919076,51.9788892 90.0407251,52.1929635 89.790307,52.3049898 C89.5398889,52.417016 89.2272551,52.4730283 88.8523962,52.4730283 C88.35156,52.4730283 87.9590394,52.3441233 87.6748226,52.0863095 C87.3906057,51.8284957 87.2484994,51.4617304 87.2484994,50.9860026 C87.2484994,49.9670243 88.0642663,49.4329895 89.6958246,49.3838821 L90.5530797,49.3562593 L90.5530797,49.0432013 C90.5530797,48.6472729 90.467816,48.3549349 90.2972859,48.1661784 C90.1267558,47.9774219 89.8540653,47.883045 89.4792064,47.883045 C89.0582582,47.883045 88.5820101,48.01195 88.0504478,48.2697638 L87.815394,47.6850818 C88.0642757,47.5500365 88.3369662,47.4441503 88.6334735,47.36742 C88.9299808,47.2906897 89.2272517,47.2523251 89.5252954,47.2523251 C90.1275278,47.2523251 90.5738183,47.3858339 90.8641804,47.6528553 C91.1545425,47.9198767 91.2997213,48.3480253 91.2997213,48.937314 L91.2997213,52.3809524 L90.7328268,52.3809524 Z M89.0044898,51.8423084 C89.480745,51.8423084 89.8548302,51.7118689 90.1267566,51.4509859 C90.398683,51.1901029 90.5346442,50.8248721 90.5346442,50.3552827 L90.5346442,49.8995071 L89.769567,49.9317336 C89.1611893,49.9532181 88.7225802,50.047595 88.4537264,50.214867 C88.1848727,50.382139 88.0504478,50.6422508 88.0504478,50.9952102 C88.0504478,51.2714393 88.1341753,51.4816771 88.3016328,51.6259301 C88.4690903,51.770183 88.7033736,51.8423084 89.0044898,51.8423084 Z M97.0009289,52.3809524 L96.0745403,49.4207124 C96.0161606,49.2396289 95.9070844,48.8283607 95.7473085,48.1868955 L95.7104373,48.1868955 C95.5875327,48.7240075 95.4799928,49.1383449 95.3878144,49.42992 L94.4337724,52.3809524 L93.5488639,52.3809524 L92.1708032,47.3351935 L92.9727515,47.3351935 C93.2984487,48.6027779 93.5465586,49.5680305 93.7170887,50.2309803 C93.8876188,50.89393 93.9851728,51.3404936 94.0097537,51.5706845 L94.0466249,51.5706845 C94.0804237,51.3957395 94.1349618,51.1693885 94.2102408,50.8916248 C94.2855199,50.6138611 94.3508119,50.3936485 94.406119,50.2309803 L95.3325076,47.3351935 L96.1621094,47.3351935 L97.0654535,50.2309803 C97.2375199,50.7588847 97.3542775,51.2023792 97.4157298,51.5614769 L97.452601,51.5614769 C97.4648914,51.4509853 97.4979216,51.2806466 97.5516923,51.0504557 C97.6054631,50.8202648 97.9257783,49.5818565 98.5126477,47.3351935 L99.3053782,47.3351935 L97.908882,52.3809524 L97.0009289,52.3809524 Z M102.35186,52.4730283 C101.605215,52.4730283 101.01605,52.24591 100.584348,51.7916667 C100.152645,51.3374233 99.9367974,50.7067098 99.9367974,49.8995071 C99.9367974,49.0861659 100.137282,48.4401066 100.538259,47.9613095 C100.939235,47.4825125 101.477702,47.2431176 102.153678,47.2431176 C102.786636,47.2431176 103.287465,47.4510535 103.656179,47.8669317 C104.024892,48.2828099 104.209246,48.8314233 104.209246,49.5127883 L104.209246,49.9961868 L100.729528,49.9961868 C100.744891,50.5885446 100.894679,51.0381774 101.178896,51.3450986 C101.463112,51.6520198 101.863314,51.8054781 102.379514,51.8054781 C102.923366,51.8054781 103.461066,51.6919189 103.992628,51.4647972 L103.992628,52.1461589 C103.722238,52.2627889 103.466447,52.3464237 103.225247,52.3970657 C102.984046,52.4477077 102.69292,52.4730283 102.35186,52.4730283 Z M102.14446,47.883045 C101.738875,47.883045 101.415487,48.0150191 101.174287,48.2789714 C100.933086,48.5429236 100.79098,48.9081543 100.747964,49.3746745 L103.388862,49.3746745 C103.388862,48.8928082 103.281323,48.5237411 103.06624,48.2674619 C102.851157,48.0111827 102.5439,47.883045 102.14446,47.883045 Z M108.772056,51.0044178 C108.772056,51.4740072 108.59692,51.8361687 108.246642,52.0909133 C107.896364,52.3456579 107.404753,52.4730283 106.771794,52.4730283 C106.101964,52.4730283 105.579627,52.3671421 105.204768,52.1553664 L105.204768,51.4463821 C105.447505,51.5691505 105.707905,51.6658293 105.985977,51.7364211 C106.264048,51.807013 106.53213,51.8423084 106.79023,51.8423084 C107.189669,51.8423084 107.496926,51.7786232 107.712009,51.6512509 C107.927092,51.5238786 108.034632,51.3297539 108.034632,51.0688709 C108.034632,50.8724414 107.949368,50.7044045 107.778838,50.5647554 C107.608308,50.4251063 107.275703,50.2601386 106.781012,50.0698475 C106.310902,49.8949024 105.97676,49.7422114 105.778576,49.6117699 C105.580393,49.4813284 105.432909,49.3332412 105.336122,49.1675037 C105.239335,49.0017663 105.190942,48.8038051 105.190942,48.5736142 C105.190942,48.1623398 105.358397,47.8377756 105.693312,47.5999116 C106.028227,47.3620477 106.487576,47.2431176 107.071372,47.2431176 C107.615225,47.2431176 108.14678,47.3536075 108.666051,47.5745908 L108.394126,48.1961031 C107.887145,47.9873966 107.427796,47.883045 107.016066,47.883045 C106.653497,47.883045 106.380039,47.9398246 106.195682,48.0533854 C106.011325,48.1669463 105.919148,48.3234737 105.919148,48.5229725 C105.919148,48.6580178 105.953714,48.7731115 106.022848,48.8682571 C106.091982,48.9634026 106.203362,49.053943 106.356993,49.139881 C106.510624,49.2258189 106.80559,49.3501201 107.241902,49.5127883 C107.841061,49.7307024 108.245872,49.9501477 108.456346,50.171131 C108.666821,50.3921142 108.772056,50.6698737 108.772056,51.0044178 Z M114.376477,49.8534691 C114.376477,50.6760179 114.169078,51.3182408 113.754275,51.7801572 C113.339472,52.2420736 112.766438,52.4730283 112.035156,52.4730283 C111.583482,52.4730283 111.182512,52.3671421 110.832234,52.1553664 C110.481956,51.9435908 110.21157,51.6397434 110.021068,51.2438151 C109.830565,50.8478868 109.735316,50.3844428 109.735316,49.8534691 C109.735316,49.0309204 109.941178,48.390232 110.352908,47.9313849 C110.764639,47.4725377 111.336136,47.2431176 112.067419,47.2431176 C112.77412,47.2431176 113.335632,47.4779087 113.751971,47.9474981 C114.16831,48.4170875 114.376477,49.0524048 114.376477,49.8534691 Z M110.528046,49.8534691 C110.528046,50.4980036 110.657094,50.9890701 110.915194,51.3266834 C111.173293,51.6642967 111.552756,51.8331008 112.053592,51.8331008 C112.554428,51.8331008 112.934658,51.665064 113.194294,51.3289853 C113.45393,50.9929066 113.583746,50.5010728 113.583746,49.8534691 C113.583746,49.2120039 113.45393,48.7247738 113.194294,48.3917643 C112.934658,48.0587548 112.551355,47.8922526 112.044374,47.8922526 C111.543538,47.8922526 111.165612,48.056453 110.910585,48.3848586 C110.655558,48.7132643 110.528046,49.2027962 110.528046,49.8534691 Z M122.156298,52.3809524 L122.156298,49.0984468 C122.156298,48.6963801 122.070266,48.3948345 121.898199,48.1938012 C121.726133,47.9927678 121.458819,47.8922526 121.096251,47.8922526 C120.619996,47.8922526 120.268187,48.0288305 120.040813,48.3019903 C119.81344,48.5751502 119.699755,48.9956259 119.699755,49.5634301 L119.699755,52.3809524 L118.934677,52.3809524 L118.934677,49.0984468 C118.934677,48.6963801 118.848646,48.3948345 118.676579,48.1938012 C118.504513,47.9927678 118.235663,47.8922526 117.870022,47.8922526 C117.390694,47.8922526 117.039653,48.0357361 116.816889,48.3227074 C116.594124,48.6096787 116.482743,49.0800284 116.482743,49.7337705 L116.482743,52.3809524 L115.717666,52.3809524 L115.717666,47.3351935 L116.339868,47.3351935 L116.464308,48.0257626 L116.501179,48.0257626 C116.645592,47.7802257 116.84915,47.5884028 117.111858,47.4502883 C117.374567,47.3121738 117.668765,47.2431176 117.994462,47.2431176 C118.784124,47.2431176 119.300316,47.52855 119.543052,48.0994234 L119.579923,48.0994234 C119.730481,47.8354712 119.948634,47.6267679 120.234387,47.4733073 C120.52014,47.3198467 120.845832,47.2431176 121.211473,47.2431176 C121.78298,47.2431176 122.210835,47.3896702 122.495052,47.6827799 C122.779269,47.9758897 122.921375,48.4447047 122.921375,49.0892392 L122.921375,52.3809524 L122.156298,52.3809524 Z M126.631538,52.4730283 C125.884893,52.4730283 125.295728,52.24591 124.864026,51.7916667 C124.432323,51.3374233 124.216475,50.7067098 124.216475,49.8995071 C124.216475,49.0861659 124.41696,48.4401066 124.817937,47.9613095 C125.218913,47.4825125 125.75738,47.2431176 126.433356,47.2431176 C127.066314,47.2431176 127.567143,47.4510535 127.935857,47.8669317 C128.30457,48.2828099 128.488924,48.8314233 128.488924,49.5127883 L128.488924,49.9961868 L125.009206,49.9961868 C125.024569,50.5885446 125.174357,51.0381774 125.458574,51.3450986 C125.74279,51.6520198 126.142992,51.8054781 126.659192,51.8054781 C127.203044,51.8054781 127.740744,51.6919189 128.272306,51.4647972 L128.272306,52.1461589 C128.001916,52.2627889 127.746125,52.3464237 127.504924,52.3970657 C127.263724,52.4477077 126.972598,52.4730283 126.631538,52.4730283 Z M126.424138,47.883045 C126.018553,47.883045 125.695165,48.0150191 125.453965,48.2789714 C125.212764,48.5429236 125.070658,48.9081543 125.027641,49.3746745 L127.66854,49.3746745 C127.66854,48.8928082 127.561001,48.5237411 127.345917,48.2674619 C127.130834,48.0111827 126.823578,47.883045 126.424138,47.883045 Z" id="just-fucking-awesome" fill="#333333"></path>
            </g>
        </g>
    </g>
</svg>