<svg width="180" height="180" viewBox="0 0 180 180" xmlns="http://www.w3.org/2000/svg"><title>iPhone 7</title><g fill="none" fill-rule="evenodd"><g fill="#000"><path d="M125.19 102.83c0-2.266.798-4.782 2.394-7.548a24.78 24.78 0 0 1 6.2-7.144c2.539-1.998 5-2.997 7.384-2.997 1.5 0 2.75.404 3.75 1.21 1 .807 1.5 1.844 1.5 3.112 0 1.652-.943 2.477-2.827 2.477a7.512 7.512 0 0 0 .288-2.016c0-2.151-.942-3.227-2.826-3.227-1.692 0-3.49.97-5.394 2.91-1.903 1.94-3.46 4.187-4.672 6.741-1.211 2.555-1.817 4.773-1.817 6.655 0 1.498.52 2.247 1.558 2.247.692 0 1.5-.326 2.422-.979a17.314 17.314 0 0 0 2.538-2.19c.77-.806 1.683-1.891 2.74-3.255 1.058-1.364 1.836-2.41 2.336-3.14l2.077-2.996c1.538.268 2.307.749 2.307 1.44 0 .307-.557 1.46-1.673 3.457-1.115 1.998-1.672 3.515-1.672 4.552 0 .653.163 1.239.49 1.757.327.519.817.778 1.47.778 1.116 0 2.52-.797 4.212-2.39 1.692-1.595 3.365-3.833 5.018-6.714l.577.577c-1.192 3.073-2.875 5.589-5.047 7.548-2.173 1.959-4.298 2.938-6.374 2.938-1.346 0-2.375-.393-3.086-1.18-.712-.788-1.067-1.739-1.067-2.853 0-.461.057-1.018.173-1.671-1.73 2.305-3.279 3.995-4.644 5.07-1.365 1.076-2.72 1.614-4.066 1.614-1.27 0-2.298-.413-3.086-1.239-.789-.826-1.183-2.007-1.183-3.544z"/><path d="M110.02 101.851c0-3.304 1.115-7.932 3.345-13.886-.923-.154-1.615-.308-2.077-.461v-1.037c1.385.153 2.23.23 2.538.23 1.693-4.379 3.51-8.172 5.452-11.38 1.942-3.207 3.47-4.81 4.585-4.81.308 0 .587.114.837.345.25.23.375.538.375.922 0 .576-.375 1.575-1.125 2.996s-1.808 3.323-3.173 5.704c-1.365 2.382-2.49 4.514-3.374 6.396h2.134c3.192 0 5.941-.115 8.249-.346v1.037c-4.077.461-7.364.692-9.864.692h-1.154c-2.115 4.801-3.172 8.97-3.172 12.503 0 1.729.25 2.939.75 3.63.5.692 1.326 1.037 2.48 1.037 1.961 0 3.903-.874 5.826-2.621 1.923-1.748 3.634-4.158 5.134-7.232l.75.577c-1.423 3.342-3.346 6.078-5.769 8.21-2.422 2.132-4.96 3.198-7.614 3.198-3.422 0-5.134-1.901-5.134-5.704zM105.059 78.112c0-.768.461-1.46 1.384-2.074.923-.615 1.865-.922 2.827-.922 1.269 0 1.903.576 1.903 1.728 0 .769-.394 1.489-1.182 2.161-.789.672-1.644 1.008-2.567 1.008-1.577 0-2.365-.633-2.365-1.901z"/><path d="M96.06 101.563c0-1.498.404-3.515 1.211-6.05.808-2.535 1.885-4.86 3.23-6.972 1.347-2.113 2.635-3.17 3.865-3.17.846 0 1.27.423 1.27 1.269 0 .46-.5 1.517-1.5 3.169-1 1.651-2 3.524-3 5.617-1 2.094-1.5 3.928-1.5 5.503 0 1.344.222 2.257.664 2.737.442.48 1.163.72 2.163.72 3 0 5.96-2.938 8.883-8.816l.52.577c-1.078 3.226-2.664 5.742-4.76 7.548-2.095 1.805-4.297 2.708-6.604 2.708-1.423 0-2.52-.451-3.288-1.354-.77-.903-1.154-2.065-1.154-3.486z"/><path d="M82.908 100.699c0-2.613.75-6.098 2.25-10.458s3.24-8.49 5.22-12.388c1.98-3.9 3.98-7.28 6-10.141 2.018-2.862 3.508-4.293 4.47-4.293.538 0 .99.48 1.355 1.44.366.96.548 1.902.548 2.824 0 2.88-1.576 7.27-4.73 13.166-3.153 5.896-6.69 10.458-10.613 13.684-.5 2.228-.75 4.168-.75 5.82 0 2.958.846 4.437 2.538 4.437 1.423 0 2.874-.903 4.355-2.709 1.48-1.805 2.798-3.975 3.951-6.51l.865.46c-3.307 7.068-6.902 10.602-10.786 10.602h-.058c-3.076 0-4.615-1.978-4.615-5.934zm5.019-8.125c3.153-3.188 6.114-7.385 8.883-12.59 2.769-5.204 4.153-8.863 4.153-10.976 0-.615-.134-.922-.404-.922-.538 0-1.605 1.239-3.201 3.717-1.596 2.477-3.317 5.694-5.163 9.65-1.845 3.957-3.268 7.664-4.268 11.121z"/><path d="M63.21 94.159c1.403-2.44 2.913-3.659 4.528-3.659.346 0 .75.096 1.211.288-.73.615-1.596 2.142-2.596 4.58-1 2.44-1.5 4.351-1.5 5.734 0 2.19.693 3.284 2.077 3.284 1.692 0 3.75-1.536 6.172-4.61-1.076-.883-1.913-2.035-2.509-3.456a11.36 11.36 0 0 1-.894-4.437c0-1.998.51-3.707 1.529-5.128 1.019-1.422 2.393-2.132 4.124-2.132 2.653 0 3.98 1.479 3.98 4.437 0 2.996-1.288 6.414-3.865 10.256a4.451 4.451 0 0 0 2.192.576c1.115 0 2.27-.336 3.461-1.008 1.192-.673 2.096-1.72 2.711-3.14l.693.576c-.731 1.69-1.77 2.938-3.115 3.745-1.346.806-2.73 1.21-4.154 1.21-1.038 0-1.96-.192-2.768-.576-3.077 4.033-6.019 6.05-8.826 6.05-1.576 0-2.73-.48-3.46-1.44-.731-.961-1.097-2.229-1.097-3.804 0-2.458.702-4.907 2.106-7.346zm8.97-2.103c0 2.612.653 4.686 1.96 6.223 2.231-3.304 3.346-6.262 3.346-8.874 0-2.15-.577-3.226-1.73-3.226-.846 0-1.654.585-2.423 1.757-.77 1.172-1.154 2.545-1.154 4.12z"/><g><path d="M25.514 102.946c0-1.69 1.404-2.536 4.21-2.536 1.693 0 4.058.404 7.096 1.21.653-1.113 1.326-2.554 2.019-4.321.692-1.767 1.24-3.236 1.644-4.408.403-1.171 1.028-3.102 1.874-5.79l1.673-5.244c-1.769-.576-3.163-1.421-4.182-2.535-1.019-1.114-1.528-2.324-1.528-3.63 0-1.114.336-2.151 1.009-3.112.673-.96 1.529-1.44 2.567-1.44-.5.691-.75 1.882-.75 3.572 0 2.766 1.096 4.744 3.288 5.935.846-2.574 1.653-4.782 2.423-6.626a43.56 43.56 0 0 1 2.682-5.359c1.019-1.728 2.144-3.034 3.374-3.918 1.23-.883 2.538-1.325 3.923-1.325 1.423 0 2.71.461 3.864 1.383 1.154.922 1.731 2.42 1.731 4.494 0 1.383-.288 2.824-.865 4.322-.577 1.498-1.404 2.929-2.48 4.292-1.077 1.364-2.53 2.478-4.356 3.342-1.826.864-3.874 1.297-6.143 1.297h-.923c-3.269 9.833-6.037 16.44-8.306 19.82.346.116 1.211.385 2.596.807l2.826.864c.461.154 1.288.385 2.48.692 1.192.307 2.115.528 2.77.663.653.134 1.412.259 2.278.374.865.115 1.644.173 2.336.173 1.538 0 2.903-.307 4.095-.922-1.153 3.265-3.172 4.898-6.056 4.898-1 0-2.202-.202-3.606-.605-1.403-.404-2.518-.778-3.345-1.124-.827-.346-2.26-.99-4.298-1.93-2.038-.941-3.288-1.508-3.749-1.7-2.038 2.266-4.172 3.4-6.403 3.4-1.73 0-3.124-.557-4.182-1.671-1.057-1.114-1.586-2.228-1.586-3.342zM48.01 81.454c3.154-.039 5.826-1.652 8.018-4.84 2.192-3.188 3.288-6.146 3.288-8.874 0-1.92-.692-2.88-2.076-2.88-.847 0-1.673.403-2.48 1.21-.808.806-1.616 2.103-2.424 3.889A74.49 74.49 0 0 0 50.26 75a291.27 291.27 0 0 0-2.25 6.454zm-19.785 23.739c.808.73 1.75 1.095 2.826 1.095 1.616 0 3.096-.884 4.442-2.65-2.846-1.153-5.038-1.73-6.576-1.73-1.269 0-1.903.365-1.903 1.095s.403 1.46 1.211 2.19z"/></g></g><path d="M59.301 117.646c-.291 0-.528-.038-.71-.115v-.622c.213.062.422.092.628.092.24 0 .415-.065.527-.195.112-.13.168-.33.168-.596v-5.875h.766v5.82c0 .994-.46 1.491-1.379 1.491zm.549-8.678c0-.175.043-.303.129-.385a.451.451 0 0 1 .323-.122c.123 0 .229.042.318.125.089.083.133.21.133.382 0 .172-.044.3-.133.384a.447.447 0 0 1-.318.127.442.442 0 0 1-.323-.127c-.086-.084-.13-.212-.13-.384zm3.17 1.367v3.273c0 .412.095.719.282.921.187.203.48.304.88.304.529 0 .915-.144 1.16-.433.244-.288.366-.76.366-1.413v-2.652h.765v5.046h-.632l-.11-.677h-.042a1.524 1.524 0 0 1-.652.571 2.194 2.194 0 0 1-.951.198c-.615 0-1.075-.146-1.38-.437-.307-.292-.46-.758-.46-1.4v-3.3h.775zm8.334 3.67c0 .469-.175.831-.526 1.086-.35.255-.842.382-1.475.382-.67 0-1.192-.106-1.567-.318v-.709c.243.123.504.22.782.29.278.071.546.106.804.106.4 0 .707-.063.922-.19a.632.632 0 0 0 .322-.583.632.632 0 0 0-.255-.504c-.171-.14-.504-.305-.998-.495-.47-.175-.805-.328-1.003-.458a1.369 1.369 0 0 1-.442-.444 1.158 1.158 0 0 1-.145-.594c0-.412.167-.736.502-.974.335-.238.794-.357 1.378-.357.544 0 1.075.11 1.595.332l-.272.621c-.507-.209-.967-.313-1.378-.313-.363 0-.636.057-.82.17a.527.527 0 0 0-.277.47c0 .135.034.25.104.345.069.095.18.186.334.272.153.086.448.21.885.373.599.218 1.004.437 1.214.658.21.221.316.499.316.833zm2.876.837c.135 0 .265-.01.391-.03.126-.02.226-.04.3-.062v.585a1.4 1.4 0 0 1-.366.099c-.162.026-.307.039-.436.039-.977 0-1.466-.514-1.466-1.542v-3.002h-.723v-.368l.723-.318.323-1.077h.443v1.17h1.465v.593H73.42v2.97c0 .303.072.537.216.7.145.162.343.243.595.243zm6.43-3.913h-1.287v4.452h-.765v-4.452h-.903v-.345l.903-.276v-.281c0-1.24.542-1.86 1.627-1.86.267 0 .58.054.94.16l-.198.613a2.533 2.533 0 0 0-.756-.142c-.289 0-.502.095-.64.287-.139.192-.208.5-.208.923v.327h1.286v.594zm1.64-.594v3.273c0 .412.094.719.281.921.187.203.48.304.88.304.529 0 .915-.144 1.16-.433.244-.288.366-.76.366-1.413v-2.652h.765v5.046h-.631l-.111-.677h-.042a1.524 1.524 0 0 1-.652.571 2.194 2.194 0 0 1-.951.198c-.615 0-1.075-.146-1.38-.437-.307-.292-.46-.758-.46-1.4v-3.3h.775zm7.093 5.138c-.731 0-1.297-.225-1.698-.674-.401-.45-.602-1.086-.602-1.909 0-.844.204-1.496.61-1.956.408-.46.988-.69 1.74-.69.243 0 .486.025.729.077a2.4 2.4 0 0 1 .571.185l-.235.649a3.6 3.6 0 0 0-.553-.168 2.472 2.472 0 0 0-.53-.067c-1.026 0-1.54.654-1.54 1.961 0 .62.126 1.096.376 1.427.25.332.622.497 1.114.497.42 0 .852-.09 1.295-.271v.677c-.338.175-.764.262-1.277.262zm3.23-2.675a8.99 8.99 0 0 1 .605-.736l1.631-1.727h.908l-2.046 2.15 2.189 2.896h-.926l-1.784-2.385-.576.497v1.888h-.756v-7.164h.756v3.799c0 .168-.012.43-.037.782h.037zm4.965 2.583h-.765v-5.046h.765v5.046zm-.83-6.413c0-.175.043-.303.129-.385a.451.451 0 0 1 .323-.122c.123 0 .229.042.318.125.089.083.133.21.133.382 0 .172-.044.3-.133.384a.447.447 0 0 1-.318.127.442.442 0 0 1-.323-.127c-.086-.084-.129-.212-.129-.384zm5.909 6.413v-3.264c0-.411-.094-.718-.282-.92-.187-.203-.48-.305-.88-.305-.528 0-.915.143-1.161.428-.246.286-.369.757-.369 1.414v2.647h-.765v-5.046h.622l.125.69h.036c.157-.248.377-.44.66-.577.282-.137.597-.205.944-.205.609 0 1.067.147 1.374.44.307.293.46.762.46 1.406v3.292h-.764zm6.47-5.046v.484l-.935.11c.086.108.163.248.23.421.068.174.102.37.102.587 0 .494-.17.889-.507 1.183-.338.295-.802.442-1.392.442a2.32 2.32 0 0 1-.424-.036c-.326.171-.489.388-.489.649 0 .138.057.24.17.306.115.066.31.099.586.099h.894c.547 0 .967.115 1.26.345.294.23.441.565.441 1.004 0 .558-.224.984-.673 1.277-.449.293-1.103.44-1.963.44-.66 0-1.17-.123-1.528-.368-.358-.246-.537-.593-.537-1.04 0-.308.098-.573.295-.797.197-.224.473-.376.83-.456a.8.8 0 0 1-.325-.272.718.718 0 0 1-.132-.428c0-.184.05-.345.148-.483a1.55 1.55 0 0 1 .465-.4 1.364 1.364 0 0 1-.638-.549 1.609 1.609 0 0 1-.247-.883c0-.553.166-.979.498-1.278.332-.3.802-.449 1.41-.449.265 0 .503.03.715.092h1.746zm-4.028 5.893c0 .273.116.48.346.622.23.14.56.211.99.211.643 0 1.119-.096 1.427-.287.31-.192.464-.452.464-.78 0-.274-.085-.463-.254-.57-.169-.105-.487-.158-.954-.158h-.917c-.347 0-.618.083-.811.248-.194.166-.29.404-.29.714zm.415-4.277c0 .353.1.62.3.801.2.181.477.272.834.272.747 0 1.12-.362 1.12-1.087 0-.758-.378-1.137-1.134-1.137-.36 0-.636.097-.83.29-.193.194-.29.48-.29.861zm10.209 3.43l-.152-.718h-.037c-.252.316-.503.53-.754.642-.25.112-.563.168-.938.168-.5 0-.893-.129-1.177-.387-.284-.258-.427-.624-.427-1.1 0-1.019.816-1.553 2.448-1.602l.857-.028v-.313c0-.396-.085-.688-.256-.877-.17-.189-.443-.283-.818-.283-.42 0-.897.129-1.429.387l-.235-.585c.25-.135.522-.24.818-.318.297-.076.594-.115.892-.115.603 0 1.049.134 1.34.4.29.268.435.696.435 1.285v3.444h-.567zm-1.729-.539c.477 0 .85-.13 1.123-.391.272-.26.408-.626.408-1.096v-.455l-.765.032c-.609.021-1.047.116-1.316.283-.27.167-.404.427-.404.78 0 .276.084.487.252.63.167.145.401.217.702.217zm7.997.539l-.926-2.96a25.064 25.064 0 0 1-.328-1.234h-.037c-.122.537-.23.951-.322 1.243l-.954 2.951h-.885l-1.378-5.046h.802l.744 2.896c.17.663.268 1.11.293 1.34h.037c.033-.175.088-.402.163-.68.076-.277.14-.497.196-.66l.927-2.896h.83l.902 2.896c.173.528.29.971.35 1.33h.038c.012-.11.045-.28.099-.51.053-.23.374-1.47.96-3.716h.793l-1.396 5.046H122zm5.35.092c-.746 0-1.335-.227-1.767-.681-.431-.455-.647-1.085-.647-1.892 0-.814.2-1.46.601-1.939.401-.478.94-.718 1.616-.718.633 0 1.133.208 1.502.624.369.416.553.964.553 1.646v.483h-3.48c.016.593.166 1.042.45 1.35.284.306.684.46 1.2.46.544 0 1.082-.114 1.614-.341v.681c-.27.117-.527.2-.768.251-.241.05-.532.076-.873.076zm-.207-4.59c-.405 0-.729.132-.97.396-.24.264-.383.63-.426 1.096h2.64c0-.482-.107-.851-.322-1.108-.215-.256-.522-.384-.922-.384zm6.628 3.121c0 .47-.175.832-.525 1.087-.35.255-.842.382-1.475.382-.67 0-1.192-.106-1.567-.318v-.709c.243.123.503.22.781.29.278.071.546.106.804.106.4 0 .707-.063.922-.19a.632.632 0 0 0 .323-.583.632.632 0 0 0-.256-.504c-.17-.14-.503-.305-.998-.495-.47-.175-.804-.328-1.002-.458a1.369 1.369 0 0 1-.443-.444 1.158 1.158 0 0 1-.145-.594c0-.412.167-.736.502-.974.335-.238.795-.357 1.378-.357.544 0 1.076.11 1.595.332l-.272.621c-.507-.209-.966-.313-1.378-.313-.363 0-.636.057-.82.17a.527.527 0 0 0-.277.47c0 .135.035.25.104.345.069.095.18.186.334.272.154.086.449.21.885.373.6.218 1.004.437 1.214.658.21.221.316.499.316.833zm5.604-1.15c0 .822-.207 1.464-.622 1.926-.415.462-.988.693-1.719.693-.452 0-.852-.106-1.203-.318a2.097 2.097 0 0 1-.81-.911c-.191-.396-.287-.86-.287-1.39 0-.823.206-1.464.618-1.923.412-.458.983-.688 1.714-.688.707 0 1.269.235 1.685.704.416.47.624 1.105.624 1.906zm-3.848 0c0 .644.13 1.135.387 1.473.258.337.638.506 1.139.506.5 0 .88-.168 1.14-.504.26-.336.39-.828.39-1.476 0-.641-.13-1.128-.39-1.461-.26-.333-.643-.5-1.15-.5-.5 0-.878.164-1.133.493-.255.328-.383.818-.383 1.468zm11.628 2.527v-3.283c0-.402-.086-.703-.258-.904-.172-.201-.44-.302-.802-.302-.476 0-.828.137-1.055.41-.228.273-.341.694-.341 1.261v2.818h-.765v-3.283c0-.402-.086-.703-.258-.904-.172-.201-.441-.302-.807-.302-.48 0-.83.144-1.053.43-.223.288-.334.758-.334 1.412v2.647h-.765v-5.046h.622l.124.69h.037c.145-.245.348-.437.61-.575.264-.138.558-.207.883-.207.79 0 1.306.286 1.55.856h.036a1.61 1.61 0 0 1 .654-.626c.286-.153.612-.23.977-.23.572 0 1 .147 1.284.44.284.293.426.762.426 1.406v3.292h-.765zm4.476.092c-.747 0-1.336-.227-1.768-.681-.432-.455-.648-1.085-.648-1.892 0-.814.201-1.46.602-1.939.4-.478.94-.718 1.615-.718.633 0 1.134.208 1.503.624.369.416.553.964.553 1.646v.483h-3.48c.016.593.165 1.042.45 1.35.284.306.684.46 1.2.46.544 0 1.082-.114 1.613-.341v.681c-.27.117-.526.2-.767.251-.241.05-.532.076-.873.076zm-.208-4.59c-.405 0-.729.132-.97.396s-.383.63-.426 1.096h2.64c0-.482-.107-.851-.322-1.108-.215-.256-.522-.384-.922-.384z" fill="#333"/></g></svg>